<svg width="207" height="41" viewBox="0 0 207 41" fill="none" xmlns="http://www.w3.org/2000/svg">
<mask id="mask0_1_37" style="mask-type:luminance" maskUnits="userSpaceOnUse" x="0" y="0" width="49" height="41">
<path d="M48.7773 0H0V40.9201H48.7773V0Z" fill="white"/>
</mask>
<g mask="url(#mask0_1_37)">
<path d="M46.2975 26.4744C45.0841 25.2626 43.5312 24.4482 41.8447 24.1391C40.1579 23.83 38.417 24.0407 36.8529 24.7434C36.9009 23.5793 36.7072 22.4177 36.2839 21.3321C35.8608 20.2465 35.217 19.2605 34.3937 18.4361H34.3897L38.3798 14.4462C39.1688 13.6614 39.7954 12.7287 40.2235 11.7014C40.6516 10.6741 40.8729 9.57252 40.8744 8.45962C40.876 7.34673 40.6582 6.24444 40.2333 5.21589C39.8082 4.18732 39.1845 3.25273 38.3977 2.46561C37.611 1.67849 36.6767 1.05431 35.6483 0.628833C34.6199 0.203356 33.5177 -0.0150612 32.4048 -0.0139115C31.2919 -0.0127618 30.1902 0.207935 29.1627 0.635535C28.1353 1.06314 27.2022 1.68924 26.4171 2.47799C25.4874 3.4042 24.7898 4.5371 24.3814 5.78425C23.9695 4.57919 23.2907 3.48272 22.3958 2.57661C21.5009 1.67048 20.4129 0.978091 19.2131 0.55108C18.0133 0.124069 16.7326 -0.0265475 15.4664 0.110465C14.2003 0.247476 12.9814 0.668582 11.9007 1.34237C10.82 2.01616 9.90537 2.92525 9.22503 4.00183C8.54469 5.07841 8.1162 6.2947 7.97149 7.55998C7.82679 8.82529 7.96961 10.1069 8.38933 11.3093C8.80904 12.5117 9.49481 13.6038 10.3955 14.5042L14.3859 18.4974L14.3828 18.4956C13.5735 19.3047 12.9375 20.27 12.5135 21.3327C12.0895 22.3956 11.8864 23.5336 11.9166 24.6774C10.5088 24.0474 8.95569 23.8143 7.42502 24.003C5.89434 24.1917 4.44438 24.7952 3.23188 25.7483C2.01937 26.7016 1.09048 27.968 0.545603 29.4107C0.000725026 30.8535 -0.139401 32.4178 0.140372 33.9345C0.420146 35.4512 1.10917 36.8625 2.13298 38.0161C3.15676 39.1694 4.47637 40.0211 5.94913 40.4789C7.42189 40.9367 8.99179 40.9833 10.4891 40.6134C11.9863 40.2437 13.3541 39.4716 14.4443 38.3808L18.3766 34.4545C19.9637 36.0414 22.1162 36.9326 24.3603 36.9326C26.6045 36.9326 28.757 36.0414 30.344 34.4545L34.3285 38.4406C35.9162 40.0233 38.0671 40.9112 40.3088 40.9094C42.5506 40.9078 44.7001 40.0167 46.2854 38.4316C47.8708 36.8467 48.7625 34.6975 48.7647 32.4557C48.7669 30.2139 47.8796 28.063 46.2975 26.4748V26.4744ZM28.409 4.47123C29.4673 3.41412 30.9021 2.82036 32.3978 2.82036C33.8938 2.82036 35.3286 3.41412 36.3869 4.47123V4.47581C36.9107 4.99957 37.3262 5.62135 37.6096 6.30568C37.8931 6.99001 38.0389 7.72347 38.0389 8.46419C38.0389 9.2049 37.8931 9.93836 37.6096 10.6227C37.3262 11.307 36.9107 11.9288 36.3869 12.4526L32.3984 16.4412L28.409 12.4526C27.3509 11.3941 26.7563 9.95861 26.7563 8.46189C26.7563 6.96516 27.3509 5.52971 28.409 4.47123ZM12.4533 36.3889C11.6642 37.1784 10.6588 37.7159 9.56417 37.9338C8.46955 38.1518 7.33487 38.04 6.30369 37.6131C5.27251 37.186 4.39113 36.4629 3.771 35.5347C3.15088 34.6068 2.8199 33.5158 2.8199 32.3997C2.8199 31.2836 3.15088 30.1926 3.771 29.2646C4.39113 28.3367 5.27251 27.6134 6.30369 27.1863C7.33487 26.7594 8.46955 26.6478 9.56417 26.8656C10.6588 27.0834 11.6642 27.6212 12.4533 28.4104L16.3784 32.4563L12.4533 36.3889ZM16.4364 28.4082L15.7707 27.7405C15.0007 26.6545 14.6394 25.3314 14.7506 24.0048C14.8618 22.6782 15.4384 21.4338 16.3784 20.4911C17.4255 21.5388 18.0185 22.9565 18.0294 24.4377C18.0402 25.9191 17.4681 27.3451 16.4364 28.4082ZM16.3808 16.4994L12.3905 12.51C11.6017 11.7211 11.0646 10.7161 10.8469 9.62202C10.6293 8.5279 10.741 7.39384 11.1679 6.36322C11.5949 5.3326 12.3178 4.45172 13.2453 3.83196C14.1729 3.21223 15.2633 2.88142 16.3789 2.88142C17.4944 2.88142 18.5849 3.21223 19.5124 3.83196C20.44 4.45172 21.1629 5.3326 21.5898 6.36322C22.0167 7.39384 22.1285 8.5279 21.9109 9.62202C21.6932 10.7161 21.1561 11.7211 20.3673 12.51L16.3808 16.4994ZM20.434 32.3995C21.4957 31.3681 22.9205 30.7959 24.4008 30.8062C25.881 30.8166 27.2977 31.4087 28.3448 32.4549C27.2831 33.4863 25.8583 34.0587 24.3781 34.0483C22.8978 34.038 21.4812 33.4456 20.434 32.3995ZM30.4038 18.4361C29.618 19.2218 28.9945 20.1546 28.569 21.1815C28.1437 22.2081 27.9249 23.3086 27.9249 24.4199C27.9249 25.5313 28.1437 26.6318 28.569 27.6584C28.9945 28.6853 29.618 29.6182 30.4038 30.4039C28.8162 28.8172 26.6635 27.9257 24.4189 27.9257C22.1744 27.9257 20.0217 28.8172 18.434 30.4039L18.4322 30.4019C19.9932 28.81 20.8631 26.6665 20.8526 24.4371C20.8422 22.2077 19.9525 20.0723 18.3766 18.4953L22.3613 14.5042C23.2903 13.5786 23.9884 12.4475 24.3994 11.2021C24.8139 12.4243 25.5045 13.5346 26.4177 14.4466L30.4038 18.4357V18.4361ZM32.3969 20.4291C33.454 21.4876 34.0477 22.9226 34.0477 24.4186C34.0477 25.9145 33.454 27.3495 32.3969 28.408V28.4102C31.3401 27.3509 30.7468 25.9159 30.747 24.4197C30.747 22.9236 31.3405 21.4884 32.3973 20.4293L32.3969 20.4291ZM44.3043 36.4475C43.7805 36.9715 43.1589 37.3873 42.4745 37.6709C41.7901 37.9543 41.0564 38.1004 40.3158 38.1004C39.575 38.1004 38.8413 37.9543 38.1569 37.6709C37.4725 37.3873 36.8509 36.9715 36.3271 36.4475L32.3385 32.4581L36.3269 28.4674V28.4656C37.3854 27.4077 38.8208 26.8138 40.3172 26.8142C41.8138 26.8146 43.2488 27.4095 44.3067 28.468C45.3644 29.5263 45.9585 30.9617 45.9581 32.4583C45.9577 33.9547 45.3628 35.3896 44.3043 36.4475Z" fill="#FFE600"/>
</g>
<path d="M69.4705 21.051V31.9601H67.4477V8.68736H69.4705V17.2442H69.6523C70.0614 16.3427 70.6939 15.623 71.55 15.0851C72.4136 14.5472 73.5046 14.2783 74.8227 14.2783C76.0046 14.2783 77.0424 14.5207 77.9364 15.0055C78.8303 15.4904 79.5273 16.2063 80.0273 17.1533C80.5273 18.1002 80.7773 19.2669 80.7773 20.6533V31.9601H78.7432V20.7783C78.7432 19.3389 78.3417 18.2063 77.5386 17.3805C76.7432 16.5472 75.6674 16.1305 74.3114 16.1305C73.3796 16.1305 72.55 16.3275 71.8227 16.7214C71.0955 17.1154 70.5197 17.6836 70.0955 18.426C69.6788 19.1608 69.4705 20.0358 69.4705 21.051ZM86.1267 31.9601V14.5055H88.1608V31.9601H86.1267ZM87.1608 11.5055C86.7441 11.5055 86.3881 11.3654 86.0926 11.0851C85.7972 10.7972 85.6494 10.4525 85.6494 10.051C85.6494 9.64948 85.7972 9.30857 86.0926 9.02826C86.3881 8.74039 86.7441 8.59645 87.1608 8.59645C87.5775 8.59645 87.9335 8.74039 88.229 9.02826C88.5244 9.30857 88.6722 9.64948 88.6722 10.051C88.6722 10.4525 88.5244 10.7972 88.229 11.0851C87.9335 11.3654 87.5775 11.5055 87.1608 11.5055ZM107.022 14.5055L100.647 31.9601H98.4875L92.1125 14.5055H94.3057L99.4875 29.2896H99.6466L104.828 14.5055H107.022ZM117.411 32.3237C115.782 32.3237 114.373 31.9449 113.184 31.1874C111.994 30.4222 111.074 29.3654 110.422 28.0169C109.778 26.6608 109.456 25.1002 109.456 23.3351C109.456 21.5775 109.778 20.0169 110.422 18.6533C111.074 17.2821 111.971 16.2101 113.115 15.4374C114.267 14.6571 115.596 14.2669 117.104 14.2669C118.051 14.2669 118.964 14.4411 119.843 14.7896C120.721 15.1305 121.509 15.6571 122.206 16.3692C122.911 17.0737 123.468 17.9639 123.877 19.0396C124.286 20.1078 124.49 21.373 124.49 22.8351V23.8351H110.854V22.051H122.422C122.422 20.9298 122.195 19.9222 121.74 19.0283C121.293 18.1267 120.668 17.4146 119.865 16.8919C119.07 16.3692 118.149 16.1078 117.104 16.1078C115.998 16.1078 115.024 16.4033 114.184 16.9942C113.343 17.5851 112.684 18.3654 112.206 19.3351C111.737 20.3048 111.498 21.3654 111.49 22.5169V23.5851C111.49 24.9714 111.729 26.1836 112.206 27.2214C112.691 28.2517 113.377 29.051 114.263 29.6192C115.149 30.1874 116.199 30.4714 117.411 30.4714C118.237 30.4714 118.96 30.3427 119.581 30.0851C120.21 29.8275 120.737 29.4828 121.161 29.051C121.593 28.6116 121.918 28.1305 122.138 27.6078L124.059 28.2328C123.793 28.9677 123.358 29.6457 122.752 30.2669C122.153 30.8881 121.403 31.3881 120.502 31.7669C119.608 32.1381 118.577 32.3237 117.411 32.3237ZM137.493 14.5055V18.1419H126.982V14.5055H137.493ZM129.368 10.3237H134.209V26.5964C134.209 27.0434 134.277 27.3919 134.414 27.6419C134.55 27.8843 134.739 28.0548 134.982 28.1533C135.232 28.2517 135.52 28.301 135.845 28.301C136.073 28.301 136.3 28.2821 136.527 28.2442C136.755 28.1987 136.929 28.1646 137.05 28.1419L137.811 31.7442C137.569 31.8199 137.228 31.9071 136.789 32.0055C136.349 32.1116 135.815 32.176 135.186 32.1987C134.02 32.2442 132.997 32.0889 132.118 31.7328C131.247 31.3767 130.569 30.8237 130.084 30.0737C129.599 29.3237 129.361 28.3767 129.368 27.2328V10.3237ZM145.863 21.8692V31.9601H141.022V8.68736H145.726V17.5851H145.931C146.325 16.5548 146.961 15.748 147.84 15.1646C148.719 14.5737 149.821 14.2783 151.147 14.2783C152.359 14.2783 153.416 14.5434 154.317 15.0737C155.226 15.5964 155.931 16.3502 156.431 17.3351C156.938 18.3124 157.188 19.4828 157.181 20.8464V31.9601H152.34V21.7101C152.347 20.6343 152.075 19.7972 151.522 19.1987C150.976 18.6002 150.211 18.301 149.226 18.301C148.567 18.301 147.984 18.4411 147.476 18.7214C146.976 19.0017 146.582 19.4108 146.294 19.9487C146.014 20.479 145.87 21.1192 145.863 21.8692ZM160.99 31.9601V14.5055H165.831V31.9601H160.99ZM163.422 12.2555C162.702 12.2555 162.085 12.0169 161.57 11.5396C161.062 11.0548 160.809 10.4752 160.809 9.80099C160.809 9.13432 161.062 8.56236 161.57 8.08508C162.085 7.60023 162.702 7.35781 163.422 7.35781C164.142 7.35781 164.756 7.60023 165.263 8.08508C165.778 8.56236 166.036 9.13432 166.036 9.80099C166.036 10.4752 165.778 11.0548 165.263 11.5396C164.756 12.0169 164.142 12.2555 163.422 12.2555ZM174.55 21.8692V31.9601H169.709V14.5055H174.323V17.5851H174.527C174.914 16.5699 175.561 15.7669 176.47 15.176C177.38 14.5775 178.482 14.2783 179.777 14.2783C180.989 14.2783 182.046 14.5434 182.948 15.0737C183.849 15.604 184.55 16.3616 185.05 17.3464C185.55 18.3237 185.8 19.4904 185.8 20.8464V31.9601H180.959V21.7101C180.967 20.6419 180.694 19.8086 180.141 19.2101C179.588 18.604 178.827 18.301 177.857 18.301C177.205 18.301 176.63 18.4411 176.13 18.7214C175.637 19.0017 175.251 19.4108 174.97 19.9487C174.698 20.479 174.558 21.1192 174.55 21.8692ZM194.002 26.9374L194.013 21.1305H194.718L200.309 14.5055H205.865L198.354 23.2783H197.206L194.002 26.9374ZM189.615 31.9601V8.68736H194.456V31.9601H189.615ZM200.524 31.9601L195.388 24.3578L198.615 20.9374L206.195 31.9601H200.524Z" fill="black"/>
</svg>
